<?xml version="1.0" encoding="utf-8"?>
<!-- Generator: Adobe Illustrator 16.0.0, SVG Export Plug-In . SVG Version: 6.00 Build 0)  -->
<!DOCTYPE svg PUBLIC "-//W3C//DTD SVG 1.1//EN" "http://www.w3.org/Graphics/SVG/1.1/DTD/svg11.dtd">
<svg version="1.1" id="Layer_1" xmlns="http://www.w3.org/2000/svg" xmlns:xlink="http://www.w3.org/1999/xlink" x="0px" y="0px"
	 width="162px" height="162px" viewBox="0 0 162 162" enable-background="new 0 0 162 162" xml:space="preserve">
<g>
	<path fill="#FFFFFF" d="M161.895,124.851l-20.221-114.7c-0.402-2.238-1.858-4.146-3.906-5.131
		c-2.059-0.974-4.457-0.893-6.446,0.222L22.918,65.762l-15.28-1.314c-2.179-0.191-4.317,0.633-5.794,2.25
		c-1.476,1.605-2.117,3.824-1.736,5.964l7.379,41.866c0.382,2.149,1.738,3.997,3.676,5.011c1.938,1.004,4.236,1.055,6.215,0.141
		l13.905-6.486l11.314,1.837l-3.453,21.316c-0.924,5.722,2.981,11.153,8.724,12.077l0.012-0.049c0.822,0.19,1.637,0.321,2.408,0.451
		l53.826,8.694c2.78,0.451,5.563-0.222,7.852-1.866c2.278-1.647,3.785-4.077,4.236-6.857l3.435-21.316l34.217,5.532
		c0.974,0.151,1.958,0.1,2.891-0.151c0.061-0.01,0.121-0.029,0.181-0.049c0.081-0.01,0.161-0.041,0.241-0.07
		c0.01,0.01,0.021,0,0.03-0.01c0.131-0.041,0.271-0.091,0.401-0.151c0.051-0.01,0.091-0.02,0.132-0.051
		c0.832-0.351,1.596-0.863,2.248-1.525C161.572,129.388,162.286,127.088,161.895,124.851z M88.893,54.177
		c0.01-0.411,0.03-0.823,0.04-1.245c0.08-2.209,0.271-4.447,0.833-6.587c0.984-3.755,3.665-5.652,7.26-5.683
		c3.645-0.029,6.234,1.808,7.379,5.553c1.476,4.799,1.014,9.618-0.673,14.237c-1.365,3.724-5.502,6.073-8.675,5.411
		c-3.564-0.753-6.014-3.946-6.154-8.103C88.862,56.565,88.873,55.371,88.893,54.177z M76.804,57.078
		c0.823-0.111,1.778-0.04,2.591,0.131c1.556,0.321,2.882,1.315,3.905,2.5c0.582,0.672,1.064,1.426,1.456,2.219
		c0.421,0.873,0.693,1.787,0.763,2.74c0.011,0.09,0.011,0.171,0.021,0.251c0.1,2.631-1.897,5.261-4.076,6.536
		c-1.315,0.773-3.002,0.934-4.498,0.714c-3.795-0.563-6.857-3.887-6.908-7.501C70.008,61.035,73.1,57.55,76.804,57.078z
		 M102.889,143.071c-10.07-1.626-39.246-6.334-49.308-7.961l2.882-17.842l49.308,7.962L102.889,143.071z M118.501,91.455
		c-0.362,7.642-7.791,12.23-14.608,8.756c-3.665-1.867-7.39-2.932-11.486-2.62c-0.673,0-1.335-0.031-1.998,0
		c-4.097,0.21-7.048-1.566-8.976-5.151c-0.472-0.873-0.833-1.896-1.075-2.871c-0.411-1.687-0.229-3.434,0.302-5.081
		c0.442-1.354,1.165-2.629,2.119-3.694c1.305-1.486,2.981-2.551,4.537-3.745c1.226-0.953,2.45-1.897,3.705-2.812
		c1.687-1.244,3.414-2.43,5.212-3.493c4.869-2.872,12.037-0.612,14.989,4.106c1.687,2.671,3.294,5.391,4.959,8.071
		C117.808,85.543,118.651,88.323,118.501,91.455z M115.378,68.965c-4.909-0.773-7.48-5.41-6.495-10.119
		c0.622-2.953,1.968-6.126,3.322-8.807c1.205-2.398,3.113-4.748,5.864-5.4c0.593-0.15,1.215-0.211,1.837-0.201
		c2.31,0.02,4.699,1.035,6.044,2.852c1.857,2.531,1.677,6.045,0.653,8.887c-1.064,2.971-2.249,5.963-3.795,8.704
		C121.262,67.62,118.762,69.508,115.378,68.965z M136.824,79.137c-1.536,3.294-6.064,6.055-9.337,5.683
		c-0.693-0.081-1.396-0.231-2.049-0.473c-1.114-0.41-2.088-1.163-2.841-2.067c-0.292-0.351-0.543-0.724-0.763-1.104
		c-0.743-1.307-1.276-2.732-1.396-4.238v-0.041c-0.03-0.471,0-0.963,0.09-1.426c0.322-1.646,1.386-3.092,2.602-4.206
		c1.073-0.994,2.369-1.747,3.685-2.368c3.543-1.678,6.144-1.217,8.674,1.404C137.738,72.629,138.25,76.054,136.824,79.137z"/>
</g>
</svg>
