<?xml version="1.0" encoding="utf-8"?>
<!-- Generator: Adobe Illustrator 16.0.0, SVG Export Plug-In . SVG Version: 6.00 Build 0)  -->
<!DOCTYPE svg PUBLIC "-//W3C//DTD SVG 1.1//EN" "http://www.w3.org/Graphics/SVG/1.1/DTD/svg11.dtd">
<svg version="1.1" id="Layer_1" xmlns="http://www.w3.org/2000/svg" xmlns:xlink="http://www.w3.org/1999/xlink" x="0px" y="0px"
	 width="1076px" height="1076px" viewBox="422 2 1076 1076" enable-background="new 422 2 1076 1076" xml:space="preserve">
<g>
	<circle fill="#FF2E63" cx="960" cy="540" r="538"/>
	<g>
		<path fill="#FFFFFF" d="M643.836,747.199l140.239-414.398h59.383l140.237,414.397h-56.223l-39.167-126.341H737.331
			l-39.798,126.341L643.836,747.199L643.836,747.199z M770.177,515.363l-19.583,63.17h124.449l-19.586-63.17
			c-7.58-23.156-14.746-46.214-21.475-69.171c-6.742-22.948-13.484-46.43-20.218-70.435h-2.526
			c-6.317,24.005-12.853,47.485-19.583,70.435C784.912,469.148,777.756,492.207,770.177,515.363z"/>
		<path fill="#FFFFFF" d="M1042.434,747.199V332.801h52.432v369.546h181.3v44.853H1042.434L1042.434,747.199z"/>
	</g>
</g>
</svg>
