<?xml version="1.0" encoding="utf-8"?>
<!-- Generator: Adobe Illustrator 16.0.0, SVG Export Plug-In . SVG Version: 6.00 Build 0)  -->
<!DOCTYPE svg PUBLIC "-//W3C//DTD SVG 1.1//EN" "http://www.w3.org/Graphics/SVG/1.1/DTD/svg11.dtd">
<svg version="1.1" id="Layer_1" xmlns="http://www.w3.org/2000/svg" xmlns:xlink="http://www.w3.org/1999/xlink" x="0px" y="0px"
	 width="128px" height="128px" viewBox="0 0 128 128" enable-background="new 0 0 128 128" xml:space="preserve">
<g>
	<path fill="none" stroke="#000000" stroke-width="5.3" stroke-linecap="round" stroke-linejoin="round" stroke-miterlimit="10" d="
		M102.248,50.584c0,31.979-17.124,57.898-38.248,57.898s-38.248-25.92-38.248-57.898"/>
	<path fill="none" stroke="#000000" stroke-width="5.3" stroke-linecap="round" stroke-linejoin="round" stroke-miterlimit="10" d="
		M25.751,19.518c8.996,1.827,22.787,2.996,38.249,2.996c15.461,0,29.252-1.169,38.249-2.996"/>
	
		<line fill="none" stroke="#000000" stroke-width="5.3" stroke-linecap="round" stroke-linejoin="round" stroke-miterlimit="10" x1="25.752" y1="50.584" x2="25.752" y2="19.518"/>
	
		<line fill="none" stroke="#000000" stroke-width="5.3" stroke-linecap="round" stroke-linejoin="round" stroke-miterlimit="10" x1="102.248" y1="50.584" x2="102.248" y2="19.518"/>
	
		<line fill="none" stroke="#000000" stroke-width="5.3" stroke-linecap="round" stroke-linejoin="round" stroke-miterlimit="10" x1="64" y1="71.922" x2="59.196" y2="78.09"/>
	
		<line fill="none" stroke="#000000" stroke-width="5.3" stroke-linecap="round" stroke-linejoin="round" stroke-miterlimit="10" x1="59.196" y1="78.09" x2="45.344" y2="78.09"/>
	
		<line fill="none" stroke="#000000" stroke-width="5.3" stroke-linecap="round" stroke-linejoin="round" stroke-miterlimit="10" x1="64" y1="71.922" x2="68.803" y2="78.09"/>
	
		<line fill="none" stroke="#000000" stroke-width="5.3" stroke-linecap="round" stroke-linejoin="round" stroke-miterlimit="10" x1="82.656" y1="78.09" x2="68.803" y2="78.09"/>
	
		<line fill="none" stroke="#000000" stroke-width="5.3" stroke-linecap="round" stroke-linejoin="round" stroke-miterlimit="10" x1="64" y1="88.758" x2="64" y2="94.84"/>
	<path fill="none" stroke="#000000" stroke-width="5.3" stroke-linecap="round" stroke-linejoin="round" stroke-miterlimit="10" d="
		M53.619,52.088c-1.644-1.339-4.146-2.194-6.949-2.194c-2.803,0-5.306,0.855-6.949,2.194"/>
	<path fill="none" stroke="#000000" stroke-width="5.3" stroke-linecap="round" stroke-linejoin="round" stroke-miterlimit="10" d="
		M86.551,52.088c-1.643-1.339-4.146-2.194-6.949-2.194s-5.307,0.855-6.949,2.194"/>
</g>
</svg>
