<?xml version="1.0" encoding="utf-8"?>
<!-- Generator: Adobe Illustrator 16.0.0, SVG Export Plug-In . SVG Version: 6.00 Build 0)  -->
<!DOCTYPE svg PUBLIC "-//W3C//DTD SVG 1.1//EN" "http://www.w3.org/Graphics/SVG/1.1/DTD/svg11.dtd">
<svg version="1.1" id="Layer_1" xmlns="http://www.w3.org/2000/svg" xmlns:xlink="http://www.w3.org/1999/xlink" x="0px" y="0px"
	 width="128px" height="128px" viewBox="0 0 128 128" enable-background="new 0 0 128 128" xml:space="preserve">
<g>
	<path fill="none" stroke="#000000" stroke-width="5.3" stroke-linecap="round" stroke-linejoin="round" stroke-miterlimit="10" d="
		M118.079,36.868c4.428,3.314,4.428,8.686,0,12L60.104,92.252c-4.428,3.313-11.607,3.313-16.035-0.002L9.92,66.697
		c-4.428-3.314-4.428-8.685,0-12l57.977-43.383c4.428-3.313,11.606-3.313,16.035,0L118.079,36.868z"/>
	<path fill="none" stroke="#000000" stroke-width="5.3" stroke-linecap="round" stroke-linejoin="round" stroke-miterlimit="10" d="
		M109.77,55.083l8.311,6.218c4.428,3.314,4.428,8.688,0,12l-57.975,43.385c-4.428,3.313-11.607,3.313-16.035-0.002L9.92,91.131
		c-4.428-3.314-4.428-8.686,0-12l8.309-6.217"/>
	
		<line fill="none" stroke="#000000" stroke-width="5.3" stroke-linecap="round" stroke-linejoin="round" stroke-miterlimit="10" x1="64.165" y1="38.159" x2="34.573" y2="60.302"/>
	
		<line fill="none" stroke="#000000" stroke-width="5.3" stroke-linecap="round" stroke-linejoin="round" stroke-miterlimit="10" x1="67.066" y1="60.436" x2="52.169" y2="71.584"/>
</g>
</svg>
