<?xml version="1.0" encoding="utf-8"?>
<!-- Generator: Adobe Illustrator 16.0.0, SVG Export Plug-In . SVG Version: 6.00 Build 0)  -->
<!DOCTYPE svg PUBLIC "-//W3C//DTD SVG 1.1//EN" "http://www.w3.org/Graphics/SVG/1.1/DTD/svg11.dtd">
<svg version="1.1" id="Layer_1" xmlns="http://www.w3.org/2000/svg" xmlns:xlink="http://www.w3.org/1999/xlink" x="0px" y="0px"
	 width="53.713px" height="72px" viewBox="23.287 14 53.713 72" enable-background="new 23.287 14 53.713 72" xml:space="preserve">
<path d="M67.631,20.273c0.829-1.926,0.211-4.176-1.49-5.414c-1.701-1.238-4.021-1.125-5.61,0.253L24.538,46.611
	c-1.406,1.237-1.912,3.22-1.251,4.963c0.661,1.745,2.348,2.926,4.218,2.926h15.676L32.37,79.728c-0.83,1.926-0.211,4.176,1.49,5.414
	c1.701,1.236,4.021,1.125,5.609-0.254L75.462,53.39c1.405-1.238,1.912-3.221,1.251-4.965c-0.661-1.743-2.334-2.911-4.218-2.911
	H56.818L67.631,20.273z"/>
</svg>
