<?xml version="1.0" encoding="utf-8"?>
<!-- Generator: Adobe Illustrator 16.0.0, SVG Export Plug-In . SVG Version: 6.00 Build 0)  -->
<!DOCTYPE svg PUBLIC "-//W3C//DTD SVG 1.1//EN" "http://www.w3.org/Graphics/SVG/1.1/DTD/svg11.dtd">
<svg version="1.1" id="Layer_1" xmlns="http://www.w3.org/2000/svg" xmlns:xlink="http://www.w3.org/1999/xlink" x="0px" y="0px"
	 width="140px" height="96px" viewBox="0 0 140 96" enable-background="new 0 0 140 96" xml:space="preserve">
<path d="M73.548,48c0,1.961-1.586,3.547-3.547,3.547c-1.963,0-3.547-1.586-3.547-3.547s1.584-3.547,3.547-3.547
	C71.962,44.453,73.548,46.039,73.548,48z"/>
<circle cx="87.754" cy="48" r="3.547"/>
<path d="M55.821,48c0,1.961-1.587,3.547-3.547,3.547c-1.963,0-3.548-1.586-3.548-3.547s1.585-3.547,3.548-3.547
	C54.234,44.453,55.821,46.039,55.821,48z"/>
<path fill="none" stroke="#000000" stroke-width="5" stroke-linecap="round" stroke-linejoin="round" stroke-miterlimit="10" d="
	M70.001,92.34l10.641-17.736h17.736c7.836,0,14.188-6.352,14.188-14.188V17.849c0-7.836-6.352-14.188-14.188-14.188H41.622
	c-7.836,0-14.188,6.353-14.188,14.188v42.567c0,7.836,6.352,14.188,14.188,14.188h17.736L70.001,92.34z"/>
</svg>
