<?xml version="1.0" encoding="utf-8"?>
<!-- Generator: Adobe Illustrator 16.0.0, SVG Export Plug-In . SVG Version: 6.00 Build 0)  -->
<!DOCTYPE svg PUBLIC "-//W3C//DTD SVG 1.1//EN" "http://www.w3.org/Graphics/SVG/1.1/DTD/svg11.dtd">
<svg version="1.1" id="Layer_1" xmlns="http://www.w3.org/2000/svg" xmlns:xlink="http://www.w3.org/1999/xlink" x="0px" y="0px"
	 width="176px" height="128px" viewBox="0 0 176 128" enable-background="new 0 0 176 128" xml:space="preserve">
<g>
	<circle cx="88.086" cy="17.743" r="4"/>
</g>
<line fill="none" stroke="#000000" stroke-width="5" stroke-linecap="round" stroke-linejoin="round" stroke-miterlimit="10" x1="61.064" y1="59.831" x2="114.074" y2="59.831"/>
<line fill="none" stroke="#000000" stroke-width="5" stroke-linecap="round" stroke-linejoin="round" stroke-miterlimit="10" x1="61.064" y1="72.583" x2="89.708" y2="72.583"/>
<line fill="none" stroke="#000000" stroke-width="5" stroke-linecap="round" stroke-linejoin="round" stroke-miterlimit="10" x1="61.064" y1="85.938" x2="97.061" y2="85.938"/>
<path fill="none" stroke="#000000" stroke-width="5" stroke-linecap="round" stroke-linejoin="round" stroke-miterlimit="10" d="
	M114.59,25.612h9.549c7.779,0,14.086,6.307,14.086,14.086v70.086c0,7.778-6.307,14.086-14.086,14.086H51.861
	c-7.779,0-14.086-6.308-14.086-14.086V39.698c0-7.779,6.307-14.086,14.086-14.086h9.721"/>
<path fill="none" stroke="#000000" stroke-width="5" stroke-linecap="round" stroke-linejoin="round" stroke-miterlimit="10" d="
	M100.207,13.188C98.625,7.946,93.758,4.128,88,4.13c-5.756,0-10.622,3.815-12.205,9.059h-1.789c-6.862,0-12.424,5.563-12.424,12.424
	l0,0c0,6.861,5.562,12.423,12.424,12.423h28.161c6.86,0,12.423-5.562,12.423-12.423l0,0c0-6.861-5.563-12.424-12.423-12.424
	L100.207,13.188L100.207,13.188z"/>
</svg>
