<?xml version="1.0" encoding="utf-8"?>
<!-- Generator: Adobe Illustrator 16.0.0, SVG Export Plug-In . SVG Version: 6.00 Build 0)  -->
<!DOCTYPE svg PUBLIC "-//W3C//DTD SVG 1.1//EN" "http://www.w3.org/Graphics/SVG/1.1/DTD/svg11.dtd">
<svg version="1.1" id="Layer_1" xmlns="http://www.w3.org/2000/svg" xmlns:xlink="http://www.w3.org/1999/xlink" x="0px" y="0px"
	 width="176px" height="128px" viewBox="0 0 176 128" enable-background="new 0 0 176 128" xml:space="preserve">
<path fill="none" stroke="#000000" stroke-width="5" stroke-linecap="round" stroke-linejoin="round" stroke-miterlimit="10" d="
	M151.498,99.232c7.781,0,14.088-6.31,14.088-14.088V42.884c0-7.779-6.307-14.087-14.088-14.087H95.15
	c-7.78,0-14.087,6.308-14.087,14.087v42.261c0,7.779,6.307,14.088,14.087,14.088h38.74l17.606,17.607L151.498,99.232L151.498,99.232
	z"/>
<path fill="none" stroke="#000000" stroke-width="5" stroke-linecap="round" stroke-linejoin="round" stroke-miterlimit="10" d="
	M71.744,81.596H42.108L24.5,99.203V81.596c-7.78,0-14.087-6.309-14.087-14.088V25.247c0-7.779,6.307-14.087,14.087-14.087h56.349
	c7.78,0,14.086,6.308,14.086,14.087v3.55"/>
<line fill="none" stroke="#000000" stroke-width="5" stroke-linecap="round" stroke-linejoin="round" stroke-miterlimit="10" x1="52.674" y1="24.034" x2="52.674" y2="52.403"/>
<path fill="none" stroke="#000000" stroke-width="5" stroke-linecap="round" stroke-linejoin="round" stroke-miterlimit="10" d="
	M123.309,71.408c0-0.934,0.121-1.875,0.375-2.816c0.775-2.904,2.657-5.215,5.069-6.607l0.003-0.011
	c2.414-1.386,4.291-3.698,5.068-6.602c1.558-5.805-1.889-11.773-7.693-13.327c-5.804-1.554-11.771,1.89-13.326,7.694
	c-0.195,0.727-0.313,1.455-0.354,2.178"/>
<line fill="none" stroke="#000000" stroke-width="5" stroke-linecap="round" stroke-linejoin="round" stroke-miterlimit="10" x1="71.744" y1="81.596" x2="81.063" y2="81.596"/>
<g>
	<circle cx="52.674" cy="64.413" r="4"/>
</g>
<g>
	<circle cx="123.324" cy="83.359" r="4"/>
</g>
</svg>
